<?xml version="1.0" standalone="no"?>
<!DOCTYPE svg PUBLIC "-//W3C//DTD SVG 20010904//EN"
 "http://www.w3.org/TR/2001/REC-SVG-20010904/DTD/svg10.dtd">
<svg id="Layer_1" data-name="Layer 1" xmlns="http://www.w3.org/2000/svg" viewBox="0 0 512 512"><defs><style>.cls-1{fill:none;}.cls-2{fill:#38a4dd;}.cls-3{fill:#0377be;}</style></defs><rect class="cls-1" width="512" height="512"/><path class="cls-2" d="M213.11,507.13a550.17,550.17,0,0,1-64.23-5.57,672.51,672.51,0,0,1-86.83-18.82c-9.48-2.7-10.42-4.21-9.8-14.15,2.79-44.63,5.07-89.29,6.16-134,1.07-43.63,1.1-87.26.47-130.88-.68-47.5-2.71-95-5.44-142.41-.41-7-.94-14.07-1.53-21.09-.54-6.29,1.33-9.26,7.49-11.06A640.07,640.07,0,0,1,161,7.9c17.68-2.18,35.41-3.48,53.21-4a8,8,0,0,0,2,.83c13.34,1.77,26.76,2.89,40,5.64C299.79,19.42,338.75,37,369,71a184.79,184.79,0,0,1,29,43.24c17.27,36.09,24.56,74.75,26.45,114.28,1.18,24.73,1.2,49.61-1.72,74.4-2.65,22.46-6.65,44.54-13.66,66-12,36.78-31.79,68.39-62.59,92.32-30.59,23.77-65.93,36-103.89,41.77C232.75,504.52,222.72,504.37,213.11,507.13ZM334.33,257.69c0-36.2-3.89-63.78-12.2-87.8-21.69-62.75-74.94-82.31-130.66-67.75-6.24,1.63-8.64,5-8.18,10.75,2.25,28.68,3.15,57.43,3.77,86.17,1,48.62.92,97.26-1,145.86-.65,16.31-1.8,32.6-2.79,48.89-.35,5.8,1.7,9.25,7.34,10.84,18.3,5.17,36.89,6.48,55.59,2.84,36.17-7,59.24-29.61,73-62.76C331.3,315.58,333.76,284.79,334.33,257.69Z"/><path class="cls-3" d="M213.11,507.13c9.61-2.76,19.64-2.61,29.45-4.1,38-5.75,73.3-18,103.89-41.77,30.8-23.93,50.61-55.54,62.59-92.32,7-21.5,11-43.58,13.66-66,2.92-24.79,2.9-49.67,1.72-74.4C422.53,189,415.24,150.31,398,114.22A184.79,184.79,0,0,0,369,71c-30.27-34-69.23-51.56-112.85-60.63C243,7.6,229.54,6.48,216.2,4.71a8,8,0,0,1-2-.83c39.38-.18,78.29,2.94,115.62,16.83q79.28,29.52,110.41,108.15a18.32,18.32,0,0,0,1,1.9,4.14,4.14,0,0,0,1.27,3.29l.21,1.08q37.54,120.38,0,240.76l-.21,1.08a4.15,4.15,0,0,0-1.28,3.29c-7.52,17.54-16.1,34.47-27.79,49.7-26.08,34-60.89,54.53-101.49,66.09-20.52,5.84-41.53,8.78-62.82,10.41C237.11,507.39,225.13,507.17,213.11,507.13Z"/></svg>
